HIERARCHY
ROOT hip
{
  OFFSET 0 0 0
  CHANNELS 6 Xposition Yposition Zposition Zrotation Yrotation Xrotation
  JOINT abdomen
  {
    OFFSET 0 20.6881 -0.73152
    CHANNELS 3 Zrotation Xrotation Yrotation
    JOINT chest
    {
      OFFSET 0 11.7043 -0.48768
      CHANNELS 3 Zrotation Xrotation Yrotation
      JOINT neck
      {
        OFFSET 0 22.1894 -2.19456
        CHANNELS 3 Zrotation Xrotation Yrotation
        JOINT head
        {
          OFFSET -0.24384 7.07133 1.2192
          CHANNELS 3 Zrotation Xrotation Yrotation
          JOINT leftEye
          {
            OFFSET 4.14528 8.04674 8.04672
            CHANNELS 3 Zrotation Xrotation Yrotation
            End Site
            {
              OFFSET 1 0 0
            }
          }
          JOINT rightEye
          {
            OFFSET -3.6576 8.04674 8.04672
            CHANNELS 3 Zrotation Xrotation Yrotation
            End Site
            {
              OFFSET 1 0 0
            }
          }
        }
      }
      JOINT rCollar
      {
        OFFSET -2.68224 19.2634 -4.8768
        CHANNELS 3 Zrotation Xrotation Yrotation
        JOINT rShldr
        {
          OFFSET -8.77824 -1.95073 1.46304
          CHANNELS 3 Zrotation Xrotation Yrotation
          JOINT rForeArm
          {
            OFFSET -28.1742 -1.7115 0.48768
            CHANNELS 3 Zrotation Xrotation Yrotation
            JOINT rHand
            {
              OFFSET -22.5879 0.773209 7.07136
              CHANNELS 3 Zrotation Xrotation Yrotation
              JOINT rThumb1
              {
                OFFSET -1.2192 -0.487915 3.41376
                CHANNELS 3 Zrotation Xrotation Yrotation
                JOINT rThumb2
                {
                  OFFSET -3.37035 -0.52449 3.41376
                  CHANNELS 3 Zrotation Xrotation Yrotation
                  End Site
                  {
                    OFFSET -1.78271 -1.18214 1.43049
                  }
                }
              }
              JOINT rIndex1
              {
                OFFSET -7.75947 0.938293 5.60832
                CHANNELS 3 Zrotation Xrotation Yrotation
                JOINT rIndex2
                {
                  OFFSET -2.54057 -0.884171 1.56538
                  CHANNELS 3 Zrotation Xrotation Yrotation
                  End Site
                  {
                    OFFSET -1.62519 -0.234802 1.16502
                  }
                }
              }
              JOINT rMid1
              {
                OFFSET -8.24714 1.18213 3.41376
                CHANNELS 3 Zrotation Xrotation Yrotation
                JOINT rMid2
                {
                  OFFSET -3.10165 -0.590103 1.0647
                  CHANNELS 3 Zrotation Xrotation Yrotation
                  End Site
                  {
                    OFFSET -2.48547 -0.328903 0.83742
                  }
                }
              }
              JOINT rRing1
              {
                OFFSET -8.82822 0.546677 1.51678
                CHANNELS 3 Zrotation Xrotation Yrotation
                JOINT rRing2
                {
                  OFFSET -2.60934 -0.819778 -0.0198488
                  CHANNELS 3 Zrotation Xrotation Yrotation
                  End Site
                  {
                    OFFSET -2.33842 -0.294052 0.168128
                  }
                }
              }
              JOINT rPinky1
              {
                OFFSET -8.27202 -0.0477905 -0.4584
                CHANNELS 3 Zrotation Xrotation Yrotation
                JOINT rPinky2
                {
                  OFFSET -1.82734 -0.647385 -0.700984
                  CHANNELS 3 Zrotation Xrotation Yrotation
                  End Site
                  {
                    OFFSET -1.69225 -0.51767 -0.607171
                  }
                }
              }
            }
          }
        }
      }
      JOINT lCollar
      {
        OFFSET 2.68224 19.2634 -4.8768
        CHANNELS 3 Zrotation Xrotation Yrotation
        JOINT lShldr
        {
          OFFSET 8.77824 -1.95073 1.46304
          CHANNELS 3 Zrotation Xrotation Yrotation
          JOINT lForeArm
          {
            OFFSET 28.1742 -1.7115 0.48768
            CHANNELS 3 Zrotation Xrotation Yrotation
            JOINT lHand
            {
              OFFSET 22.5879 0.773209 7.07136
              CHANNELS 3 Zrotation Xrotation Yrotation
              JOINT lThumb1
              {
                OFFSET 1.2192 -0.487915 3.41376
                CHANNELS 3 Zrotation Xrotation Yrotation
                JOINT lThumb2
                {
                  OFFSET 3.37035 -0.52449 3.41376
                  CHANNELS 3 Zrotation Xrotation Yrotation
                  End Site
                  {
                    OFFSET 1.78271 -1.18214 1.43049
                  }
                }
              }
              JOINT lIndex1
              {
                OFFSET 7.75947 0.938293 5.60832
                CHANNELS 3 Zrotation Xrotation Yrotation
                JOINT lIndex2
                {
                  OFFSET 2.54057 -0.884171 1.56538
                  CHANNELS 3 Zrotation Xrotation Yrotation
                  End Site
                  {
                    OFFSET 1.62519 -0.234802 1.16502
                  }
                }
              }
              JOINT lMid1
              {
                OFFSET 8.24714 1.18213 3.41376
                CHANNELS 3 Zrotation Xrotation Yrotation
                JOINT lMid2
                {
                  OFFSET 3.10165 -0.590103 1.0647
                  CHANNELS 3 Zrotation Xrotation Yrotation
                  End Site
                  {
                    OFFSET 2.48547 -0.328903 0.83742
                  }
                }
              }
              JOINT lRing1
              {
                OFFSET 8.82822 0.546677 1.51678
                CHANNELS 3 Zrotation Xrotation Yrotation
                JOINT lRing2
                {
                  OFFSET 2.60934 -0.819778 -0.0198488
                  CHANNELS 3 Zrotation Xrotation Yrotation
                  End Site
                  {
                    OFFSET 2.33842 -0.294052 0.168128
                  }
                }
              }
              JOINT lPinky1
              {
                OFFSET 8.27202 -0.0477905 -0.4584
                CHANNELS 3 Zrotation Xrotation Yrotation
                JOINT lPinky2
                {
                  OFFSET 1.82734 -0.647385 -0.700984
                  CHANNELS 3 Zrotation Xrotation Yrotation
                  End Site
                  {
                    OFFSET 1.69225 -0.51767 -0.607171
                  }
                }
              }
            }
          }
        }
      }
    }
  }
  JOINT rButtock
  {
    OFFSET -8.77824 4.35084 1.2192
    CHANNELS 3 Zrotation Xrotation Yrotation
    JOINT rThigh
    {
      OFFSET 0 -1.70687 -2.19456
      CHANNELS 3 Zrotation Xrotation Yrotation
      JOINT rShin
      {
        OFFSET 0 -36.8199 0.73152
        CHANNELS 3 Zrotation Xrotation Yrotation
        JOINT rFoot
        {
          OFFSET 0.73152 -45.1104 -5.12064
          CHANNELS 3 Zrotation Xrotation Yrotation
          End Site
          {
            OFFSET -1.1221 -3.69964 12.103
          }
        }
      }
    }
  }
  JOINT lButtock
  {
    OFFSET 8.77824 4.35084 1.2192
    CHANNELS 3 Zrotation Xrotation Yrotation
    JOINT lThigh
    {
      OFFSET 0 -1.70687 -2.19456
      CHANNELS 3 Zrotation Xrotation Yrotation
      JOINT lShin
      {
        OFFSET 0 -36.8199 0.73152
        CHANNELS 3 Zrotation Xrotation Yrotation
        JOINT lFoot
        {
          OFFSET -0.73152 -45.1104 -5.12064
          CHANNELS 3 Zrotation Xrotation Yrotation
          End Site
          {
            OFFSET 1.1221 -3.69964 12.103
          }
        }
      }
    }
  }
}
MOTION
Frames:	4
Frame Time:	0.00833333
5.57379 84.2276 -89.8049 -2.6757 6.7202 5.6091 7.51683 5.00899 -5.06116 4.10449 -1.34576 -1.16964 -3.74284 0.336917 -1.26812 -0.113423 -0.348789 -1.48556 -0.0 0.0 0.0 -0.0 0.0 0.0 2.75069e-13 -4.45278e-14 -1.308e-13 73.878 -31.5144 -9.20754 -5.25842 -1.72333 9.16375 -0.438607 18.4914 2.69394 -3.14692e-09 -2.55877e-09 8.3918e-10 -5.42339e-09 -4.41735e-09 1.49572e-09 -3.14692e-09 -2.55877e-09 8.39164e-10 7.73091 5.47488 0.417314 -3.14692e-09 -2.55877e-09 8.39183e-10 2.90554 0.965183 0.102902 -3.14691e-09 -2.55877e-09 8.39184e-10 10.2786 0.731801 0.0259123 -3.14692e-09 -2.55877e-09 8.39196e-10 2.22167 -0.733487 -0.20892 2.74887e-13 -4.45291e-14 -1.30949e-13 -83.2974 25.8486 2.5064 11.8287 -5.32923 -21.2787 0.273303 14.7188 -2.11582 -1.86876e-09 -1.7137e-09 -3.27297e-09 -3.26935e-09 -2.9694e-09 -5.63229e-09 -1.86876e-09 -1.71369e-09 -3.27295e-09 -7.73091 5.47488 -0.417314 -1.86875e-09 -1.71369e-09 -3.27296e-09 -2.90554 0.965183 -0.102902 -1.86877e-09 -1.71369e-09 -3.27296e-09 -10.2786 0.731801 -0.0259123 -1.86875e-09 -1.71369e-09 -3.27296e-09 -2.22167 -0.733487 0.20892 -2.03217e-16 0.0 -3.88251e-19 6.33246 -26.478 -0.814746 -0.0817054 21.192 -0.215759 -1.184 -1.09359 -9.83298 2.03217e-16 0.0 3.88251e-19 4.81367 -3.28977 -7.34511 0.417251 42.1354 -0.604562 1.47394 12.9623 -6.95099
5.53253 84.2223 -89.1435 -2.71 7.2014 5.508 8.00307 5.05665 -5.04748 3.94388 -1.39834 -1.15204 -3.73426 0.384238 -1.36446 -0.0402431 -0.346535 -1.67884 -0.0 0.0 0.0 -0.0 0.0 0.0 2.52018e-13 -4.94572e-15 -1.21958e-13 74.3422 -31.0593 -8.77289 -5.27835 -1.73172 9.19913 -0.417976 18.087 2.63057 -2.84855e-09 -2.17425e-09 3.72835e-11 -4.91882e-09 -3.75596e-09 1.05711e-10 -2.84855e-09 -2.17425e-09 3.72682e-11 7.73091 5.47488 0.417314 -2.84855e-09 -2.17425e-09 3.7285e-11 2.90554 0.965183 0.102902 -2.84854e-09 -2.17425e-09 3.72867e-11 10.2786 0.731801 0.0259123 -2.84855e-09 -2.17425e-09 3.72991e-11 2.22167 -0.733487 -0.20892 2.51904e-13 -4.94452e-15 -1.22118e-13 -82.9627 26.4778 2.12776 11.9911 -5.44274 -21.5919 0.272049 14.6826 -2.11041 -1.81068e-09 -1.45696e-09 -2.5853e-09 -3.1604e-09 -2.52197e-09 -4.44454e-09 -1.81068e-09 -1.45696e-09 -2.58528e-09 -7.73091 5.47488 -0.417314 -1.81067e-09 -1.45696e-09 -2.58529e-09 -2.90554 0.965183 -0.102902 -1.81069e-09 -1.45696e-09 -2.58529e-09 -10.2786 0.731801 -0.0259123 -1.81068e-09 -1.45696e-09 -2.5853e-09 -2.22167 -0.733487 0.20892 -2.03217e-16 0.0 -3.88251e-19 6.85641 -25.7958 -0.983223 -0.0790465 21.2147 -0.223046 -1.22555 -1.42699 -9.86403 2.03217e-16 0.0 3.88251e-19 5.48621 -4.40025 -7.06972 0.465764 44.1884 -0.664265 1.43619 12.5104 -7.2355
5.43872 84.2477 -88.4184 -2.8477 7.6015 5.2649 8.38808 5.08371 -5.00148 3.80882 -1.47194 -1.12555 -3.69444 0.47809 -1.48135 -0.00740395 -0.429653 -1.92416 -0.0 0.0 0.0 -0.0 0.0 0.0 1.93367e-13 5.96329e-14 -6.55337e-14 74.8064 -30.4201 -8.34486 -5.3164 -1.74774 9.26672 -0.389633 17.4984 2.5391 -2.18451e-09 -1.44217e-09 -1.0533e-09 -3.78635e-09 -2.49501e-09 -1.78836e-09 -2.1845e-09 -1.44217e-09 -1.05332e-09 7.73091 5.47488 0.417314 -2.18451e-09 -1.44217e-09 -1.0533e-09 2.90554 0.965183 0.102902 -2.1845e-09 -1.44217e-09 -1.0533e-09 10.2786 0.731801 0.0259123 -2.18451e-09 -1.44217e-09 -1.05329e-09 2.22167 -0.733487 -0.20892 1.93369e-13 5.96383e-14 -6.57201e-14 -82.6217 27.0469 1.73429 12.1756 -5.57235 -21.9505 0.271513 14.6631 -2.10752 -1.73055e-09 -1.03952e-09 -1.45637e-09 -3.00799e-09 -1.79458e-09 -2.49476e-09 -1.73055e-09 -1.03952e-09 -1.45636e-09 -7.73091 5.47488 -0.417314 -1.73055e-09 -1.03952e-09 -1.45637e-09 -2.90554 0.965183 -0.102902 -1.73056e-09 -1.03952e-09 -1.45637e-09 -10.2786 0.731801 -0.0259123 -1.73055e-09 -1.03952e-09 -1.45637e-09 -2.22167 -0.733487 0.20892 -2.03217e-16 0.0 -3.88251e-19 7.28189 -25.1614 -1.25661 -0.0764343 21.2324 -0.230849 -1.25718 -1.7215 -9.84443 2.03217e-16 0.0 3.88251e-19 6.09699 -5.54616 -6.74524 0.519031 46.2159 -0.728929 1.37201 11.8223 -7.59643
5.19784 84.2578 -87.6806 -3.2904 7.7856 5.0655 8.67706 5.0994 -4.91421 3.70383 -1.53772 -1.08877 -3.64253 0.571929 -1.60247 -0.00589201 -0.476226 -2.18084 -0.0 0.0 0.0 -0.0 0.0 0.0 1.22395e-13 1.1626e-13 3.55522e-15 75.2523 -29.7617 -7.90609 -5.355 -1.76398 9.33537 -0.362616 16.8959 2.44637 -1.41405e-09 -6.54591e-10 -1.98828e-09 -2.46801e-09 -1.13766e-09 -3.41511e-09 -1.41404e-09 -6.54587e-10 -1.98829e-09 7.73091 5.47488 0.417314 -1.41405e-09 -6.5459e-10 -1.98828e-09 2.90554 0.965183 0.102902 -1.41404e-09 -6.5459e-10 -1.98828e-09 10.2786 0.731801 0.0259123 -1.41405e-09 -6.54592e-10 -1.98827e-09 2.22167 -0.733487 -0.20892 1.22511e-13 1.1627e-13 3.33624e-15 -82.2824 27.5501 1.32286 12.3794 -5.71763 -22.3477 0.268771 14.5902 -2.09657 -1.6066e-09 -6.16667e-10 -3.25954e-10 -2.77998e-09 -1.05824e-09 -5.43033e-10 -1.6066e-09 -6.16667e-10 -3.25945e-10 -7.73091 5.47488 -0.417314 -1.60659e-09 -6.16665e-10 -3.25952e-10 -2.90554 0.965183 -0.102902 -1.60661e-09 -6.16666e-10 -3.25955e-10 -10.2786 0.731801 -0.0259123 -1.60659e-09 -6.16664e-10 -3.25955e-10 -2.22167 -0.733487 0.20892 -2.03217e-16 0.0 -3.88251e-19 7.6588 -24.543 -1.51525 -0.073733 21.2596 -0.236579 -1.29345 -2.03186 -9.83738 2.03217e-16 0.0 3.88251e-19 6.65531 -6.6762 -6.37466 0.575183 48.123 -0.794894 1.27418 11.0094 -7.88072
